<?xml version="1.0" standalone="no"?>
<!DOCTYPE svg PUBLIC "-//W3C//DTD SVG 20010904//EN"
 "http://www.w3.org/TR/2001/REC-SVG-20010904/DTD/svg10.dtd">
<svg version="1.0" xmlns="http://www.w3.org/2000/svg"
 width="1024.000000pt" height="1024.000000pt" viewBox="0 0 1024.000000 1024.000000"
 preserveAspectRatio="xMidYMid meet">
<metadata>
Created by potrace 1.16, written by Peter Selinger 2001-2019
</metadata>
<g transform="translate(0.000000,1024.000000) scale(0.100000,-0.100000)"
fill="#1a2b5f" stroke="none">
<path d="M0 5120 l0 -5120 5120 0 5120 0 0 5120 0 5120 -5120 0 -5120 0 0
-5120z m5176 2960 c69 -34 134 -98 134 -133 0 -13 -6 -32 -14 -43 -13 -17 -27
-19 -118 -19 -157 0 -234 38 -245 122 -5 42 21 86 61 104 35 15 117 1 182 -31z
m-171 -279 c35 -16 78 -32 95 -36 60 -13 27 -30 -58 -30 -45 0 -82 -3 -82 -8
0 -13 92 -67 127 -73 24 -5 33 -11 31 -23 -5 -26 -106 -27 -164 -1 -58 25 -58
25 -38 -4 24 -37 82 -78 135 -96 26 -8 49 -19 51 -25 1 -5 -14 -15 -34 -22
-30 -10 -47 -9 -90 3 -109 31 -105 31 -72 -6 32 -36 139 -90 179 -90 23 0 25
-3 25 -47 1 -27 7 -77 15 -113 17 -78 18 -103 5 -95 -6 4 -8 11 -4 16 3 5 0 8
-8 7 -8 -2 -32 36 -61 95 -26 54 -52 95 -58 92 -22 -14 8 -224 42 -287 17 -31
3 -33 -35 -5 -35 27 -63 90 -101 231 -24 88 -35 55 -35 -111 0 -79 -3 -143 -8
-143 -4 0 -22 13 -40 29 l-32 30 0 104 c0 116 26 288 67 442 14 55 28 121 31
148 3 42 7 47 28 47 14 0 53 -13 89 -29z m-1275 -81 c41 -11 148 -33 238 -50
325 -62 440 -119 546 -273 30 -44 83 -157 73 -157 -1 0 -59 55 -127 123 -101
98 -140 130 -201 161 -95 48 -119 43 -54 -10 50 -41 205 -210 205 -224 0 -5
-60 31 -132 80 -119 79 -406 235 -415 226 -3 -3 231 -204 371 -318 32 -26 14
-22 -77 19 -247 112 -454 270 -530 407 l-26 46 27 -6 c15 -3 61 -14 102 -24z
m2802 -22 c-28 -62 -116 -175 -181 -231 -51 -44 -170 -111 -180 -102 -4 5 21
42 87 130 24 31 42 59 39 62 -13 13 -100 -45 -222 -150 -106 -92 -167 -134
-158 -110 10 26 58 106 103 174 22 32 40 60 40 64 0 8 -138 -63 -187 -97 -24
-16 -68 -60 -100 -99 -51 -63 -160 -156 -171 -145 -12 13 81 150 208 307 l35
44 -40 -25 c-104 -62 -246 -157 -332 -221 -52 -39 -96 -69 -99 -67 -9 10 60
100 116 151 161 150 390 247 662 282 130 17 273 45 348 69 25 7 47 12 48 11 2
-2 -5 -23 -16 -47z m-3608 -482 c124 -33 272 -35 432 -7 185 33 312 44 449 38
192 -8 330 -50 495 -150 84 -52 84 -52 50 -55 -46 -5 -119 11 -269 59 -68 22
-147 43 -175 45 l-51 5 58 -24 c113 -49 239 -152 209 -171 -5 -3 -74 26 -153
64 -79 39 -179 81 -222 95 -75 24 -229 46 -215 30 4 -4 56 -28 117 -55 126
-54 210 -102 248 -142 38 -40 18 -37 -140 17 -181 63 -315 101 -422 120 -49 9
-98 19 -107 21 -10 3 -18 1 -18 -4 0 -9 62 -38 295 -136 61 -26 121 -53 135
-61 24 -14 21 -14 -40 -14 -111 -1 -264 28 -407 75 -157 52 -373 187 -450 281
l-34 41 58 -23 c32 -13 102 -35 157 -49z m4463 -22 c-38 -36 -101 -86 -139
-111 -75 -49 -277 -148 -285 -140 -2 3 26 37 62 76 37 39 61 71 54 71 -8 0
-50 -20 -94 -45 -182 -102 -265 -138 -265 -116 0 6 8 16 18 23 11 7 43 35 73
62 l54 49 -35 -7 c-19 -3 -90 -34 -158 -67 -242 -119 -285 -120 -131 -4 63 47
115 89 117 94 2 5 -59 -14 -135 -41 -238 -85 -306 -108 -322 -108 -25 1 42 53
157 122 56 33 100 63 98 66 -12 12 -152 -24 -253 -64 -61 -24 -133 -47 -160
-50 l-48 -5 42 39 c23 22 74 56 113 77 40 20 69 39 67 42 -3 2 -98 -18 -211
-46 -270 -67 -288 -67 -166 5 183 108 336 141 600 130 146 -5 196 -11 450 -51
159 -25 358 -6 505 49 64 24 64 19 -8 -50z m-2794 -261 c-41 -15 -177 -86
-222 -117 -29 -20 -57 -36 -63 -36 -5 0 -7 -4 -4 -9 3 -4 -11 -27 -30 -50 -20
-23 -34 -45 -31 -48 3 -3 36 14 73 37 107 67 267 126 394 145 42 6 36 2 -84
-69 -71 -42 -152 -93 -180 -115 -200 -153 -255 -193 -281 -206 -85 -42 119 13
221 59 38 18 131 70 205 114 111 67 358 182 391 182 19 0 4 -21 -59 -87 -46
-47 -99 -88 -163 -125 -110 -64 -340 -169 -420 -192 -30 -9 -104 -30 -165 -46
-173 -48 -311 -121 -464 -246 l-33 -27 7 44 c29 177 141 398 274 542 95 103
340 212 563 250 65 12 103 11 71 0z m1094 -7 c244 -52 428 -149 542 -286 132
-159 219 -329 271 -534 30 -118 27 -127 -22 -67 -59 71 -184 163 -303 222 -79
40 -138 59 -281 94 -252 62 -317 93 -447 215 -89 83 -239 290 -210 290 31 0
273 -191 273 -216 0 -8 5 -14 11 -14 5 0 41 -25 80 -55 38 -31 69 -52 69 -47
0 21 -106 168 -168 234 -75 79 -74 80 69 18 147 -64 295 -170 476 -344 51 -48
93 -82 93 -73 0 30 -106 173 -190 257 -47 47 -120 109 -162 138 -81 55 -225
130 -293 153 l-40 13 30 7 c52 12 131 10 202 -5z m1236 -231 c82 -21 242 -104
334 -174 261 -197 471 -547 527 -880 29 -170 21 -181 -30 -47 -64 171 -154
363 -216 464 -71 116 -228 274 -320 322 -37 19 -70 31 -74 27 -4 -3 31 -46 77
-94 141 -148 226 -274 292 -433 74 -180 126 -401 133 -565 l4 -100 -39 145
c-103 386 -220 624 -385 785 -68 66 -170 134 -183 121 -3 -3 19 -33 50 -68
143 -164 237 -332 311 -558 66 -201 114 -487 97 -572 -5 -26 -15 2 -55 153
-97 366 -163 529 -278 697 -53 76 -200 222 -223 222 -8 0 24 -56 72 -127 101
-150 157 -263 212 -428 69 -209 122 -491 120 -641 -2 -140 -12 -141 -38 -4
-64 350 -162 653 -270 838 -45 77 -164 212 -176 200 -4 -4 13 -42 38 -85 88
-149 157 -324 207 -524 43 -169 59 -285 70 -499 10 -186 6 -257 -12 -195 -4
17 -24 123 -43 237 -74 427 -144 640 -252 759 -45 49 -58 50 -37 2 78 -177
131 -365 159 -558 21 -140 23 -447 5 -590 -12 -102 -56 -305 -67 -316 -5 -5
-8 144 -8 329 0 276 -3 358 -18 452 -22 137 -51 257 -79 323 -23 52 -40 63
-33 20 33 -191 47 -475 36 -679 -10 -179 -48 -418 -81 -513 -11 -30 -20 -57
-20 -58 0 -2 -5 -3 -11 -3 -7 0 -8 82 -4 278 5 185 3 322 -4 412 -13 144 -29
226 -42 213 -4 -4 -12 -85 -18 -180 -13 -204 -42 -437 -76 -620 -26 -134 -60
-258 -73 -267 -4 -2 -3 55 1 127 16 256 -5 717 -33 717 -9 0 -16 -49 -55 -401
-23 -205 -61 -421 -89 -500 -42 -120 -51 -110 -36 42 17 187 23 456 12 557
-19 164 -32 149 -62 -69 -45 -326 -103 -607 -134 -651 -12 -17 -14 24 -18 279
-4 269 -13 365 -31 336 -3 -5 -22 -97 -42 -204 -40 -219 -97 -454 -119 -496
-13 -25 -14 -9 -9 162 5 169 -7 388 -22 403 -12 12 -21 -22 -76 -275 -59 -267
-85 -363 -101 -363 -5 0 -6 15 -3 34 8 41 -12 356 -26 409 -5 20 -14 37 -18
37 -12 0 -17 -21 -51 -249 -17 -111 -37 -215 -45 -229 -8 -15 -14 -22 -15 -16
-2 68 -87 454 -100 454 -13 0 -19 -53 -30 -234 -14 -238 -21 -300 -30 -290 -5
5 -24 61 -44 125 -47 158 -89 265 -101 259 -10 -5 -10 -189 1 -312 3 -38 2
-68 -3 -68 -4 1 -50 86 -101 190 -51 105 -97 190 -103 190 -12 0 -12 -30 7
-219 8 -90 14 -167 12 -173 -6 -18 -53 59 -160 266 -60 116 -114 216 -120 221
-18 17 -2 -99 37 -258 20 -82 34 -151 31 -154 -9 -10 -100 140 -185 305 -46
89 -88 162 -94 162 -16 0 -2 -83 36 -215 19 -66 37 -136 40 -155 l6 -35 -32
37 c-17 20 -81 128 -142 239 -133 245 -140 239 -70 -51 25 -105 45 -196 43
-201 -6 -17 -96 143 -144 254 -24 56 -69 169 -99 251 -30 83 -60 155 -66 160
-24 22 24 -335 68 -511 11 -47 -14 -21 -54 55 -77 145 -122 298 -198 672 -24
123 -47 225 -50 228 -23 23 -38 -161 -25 -302 9 -89 66 -400 87 -470 3 -11 1
-16 -5 -12 -20 12 -84 184 -118 316 -44 172 -59 261 -84 490 -11 102 -23 193
-26 203 -12 37 -22 14 -28 -60 -23 -308 -18 -420 30 -706 14 -82 24 -151 21
-153 -3 -3 -12 17 -22 43 -82 234 -112 416 -125 753 -12 289 -18 357 -30 324
-5 -12 -18 -100 -30 -195 -22 -179 -29 -498 -14 -671 4 -43 4 -78 1 -78 -3 0
-14 30 -25 68 -58 189 -74 360 -70 729 1 160 0 294 -4 298 -13 13 -81 -329
-114 -570 -17 -131 -23 -150 -36 -116 -20 57 -30 271 -26 569 3 171 2 312 -3
312 -16 0 -80 -311 -109 -533 -7 -48 -16 -89 -20 -92 -27 -17 -34 349 -11 598
8 81 11 150 8 153 -9 9 -63 -144 -98 -276 l-33 -125 -9 45 c-11 59 -1 287 17
382 20 105 59 216 118 338 44 92 61 115 137 190 68 67 76 77 38 51 -26 -19
-64 -54 -85 -79 -20 -24 -54 -62 -76 -85 -56 -62 -93 -119 -137 -211 -37 -79
-109 -308 -109 -346 0 -10 -9 -28 -21 -41 l-20 -24 5 115 c6 150 26 243 91
420 29 80 51 147 49 149 -11 12 -121 -150 -173 -255 -31 -62 -81 -209 -81
-239 0 -3 -4 -5 -10 -5 -15 0 -12 126 5 198 16 67 97 278 140 361 32 63 31 71
-1 40 -50 -47 -133 -166 -195 -279 -89 -163 -92 -168 -84 -100 15 112 89 281
195 439 78 116 225 266 308 314 100 58 108 48 32 -40 -28 -32 -77 -89 -110
-127 -33 -38 -58 -71 -56 -74 3 -2 37 19 75 47 39 28 73 51 76 51 3 0 -4 -18
-15 -41 -33 -63 -99 -239 -91 -239 13 0 46 41 110 137 79 120 112 156 183 204
32 22 58 38 58 35 0 -4 -126 -271 -155 -328 -8 -16 -12 -28 -9 -28 8 0 82 83
157 176 71 88 164 177 209 200 16 8 47 14 68 12 l39 -3 -50 -60 c-52 -62 -139
-187 -139 -200 0 -4 21 9 48 28 61 44 87 54 77 30 -76 -191 -121 -407 -110
-528 8 -92 32 -175 49 -175 8 0 30 21 49 48 71 94 181 184 304 246 57 28 203
80 209 73 2 -2 0 -17 -6 -33 -14 -39 -28 -194 -18 -194 10 0 43 54 93 153 31
63 47 83 80 103 23 13 44 24 47 24 3 0 -1 -33 -7 -72 -7 -40 -16 -104 -20
-143 -7 -64 -7 -69 9 -56 20 17 65 112 97 205 24 70 55 105 108 121 23 7 24 6
17 -31 -3 -22 -9 -84 -12 -139 -6 -95 -6 -99 11 -83 10 9 36 69 59 134 36 103
45 121 76 142 l35 23 3 -70 c2 -39 -1 -93 -6 -121 -11 -57 -2 -56 32 3 22 38
43 100 60 180 6 25 75 87 98 87 4 0 6 -53 2 -117 l-5 -118 20 23 c11 12 29 53
42 90 32 98 81 204 90 195 4 -4 17 -41 28 -80 12 -40 25 -73 30 -73 8 0 53 93
86 178 10 23 20 42 23 42 3 0 53 -31 112 -69 169 -109 305 -173 670 -312 261
-99 392 -184 521 -336 41 -48 91 -105 112 -128 l37 -40 20 24 c39 46 55 126
54 271 -2 152 -25 288 -74 421 -16 43 -27 79 -25 79 1 0 37 -16 79 -36 42 -20
79 -34 81 -32 3 3 -40 44 -94 91 -91 79 -122 119 -107 134 13 13 152 -37 275
-99 74 -37 141 -68 150 -68 20 1 -60 75 -153 141 -37 27 -112 70 -165 96 l-96
48 58 3 c36 2 86 -5 132 -17 80 -22 255 -92 293 -117 79 -52 -36 71 -133 142
-91 67 -87 76 18 49z m-4173 -1257 c104 -118 160 -190 168 -215 6 -20 9 -39 7
-41 -8 -8 -77 50 -148 123 -139 142 -237 281 -237 336 l0 22 26 -24 c15 -13
97 -104 184 -201z m141 -398 c108 -107 199 -205 202 -217 3 -13 3 -23 0 -23
-39 0 -326 241 -448 377 -104 114 -132 153 -148 203 -29 87 -9 80 97 -36 55
-60 188 -197 297 -304z m-340 83 c137 -146 352 -353 453 -436 55 -45 112 -94
127 -108 27 -25 47 -74 36 -85 -7 -8 -133 78 -237 161 -202 162 -368 331 -424
434 -31 58 -49 111 -36 111 4 0 41 -35 81 -77z m369 -615 c69 -58 186 -150
261 -206 75 -55 140 -105 144 -112 11 -18 -43 -1 -129 42 -220 109 -475 321
-627 522 -58 75 -109 164 -109 186 0 6 75 -65 168 -158 92 -93 223 -216 292
-274z m-276 4 c226 -221 421 -375 651 -513 82 -49 133 -85 123 -87 -29 -6
-139 27 -214 63 -144 69 -434 299 -561 443 -84 97 -169 232 -146 232 4 0 70
-62 147 -138z m116 -360 c249 -212 467 -362 712 -491 62 -32 139 -69 171 -82
31 -12 57 -26 57 -30 0 -10 -137 18 -205 43 -323 119 -789 465 -899 669 l-30
54 36 -30 c20 -16 91 -77 158 -133z m182 -391 c308 -228 563 -370 848 -472 91
-33 100 -38 67 -38 -242 -4 -632 193 -910 458 -51 49 -113 121 -103 121 3 0
48 -31 98 -69z"/>
<path d="M5035 8014 c28 -22 67 -34 111 -34 22 0 23 2 12 20 -17 27 -57 41
-107 38 l-43 -2 27 -22z"/>
<path d="M3000 7170 c34 -11 60 -11 35 0 -11 5 -29 8 -40 8 -16 0 -15 -2 5 -8z"/>
<path d="M3618 7173 c12 -2 32 -2 45 0 12 2 2 4 -23 4 -25 0 -35 -2 -22 -4z"/>
<path d="M3435 7160 l-60 -7 55 -1 c30 0 73 3 95 7 l40 9 -35 -1 c-19 0 -62
-3 -95 -7z"/>
<path d="M3691 7166 c2 -2 38 -6 79 -9 56 -4 65 -3 35 3 -40 9 -122 13 -114 6z"/>
<path d="M3078 7153 c12 -2 30 -2 40 0 9 3 -1 5 -23 4 -22 0 -30 -2 -17 -4z"/>
<path d="M3153 7143 c9 -2 25 -2 35 0 9 3 1 5 -18 5 -19 0 -27 -2 -17 -5z"/>
<path d="M3288 7143 c18 -2 45 -2 60 0 15 2 0 4 -33 4 -33 0 -45 -2 -27 -4z"/>
<path d="M3228 7133 c7 -3 16 -2 19 1 4 3 -2 6 -13 5 -11 0 -14 -3 -6 -6z"/>
<path d="M6570 7184 c8 -1 85 -4 170 -6 86 -3 137 -1 115 3 -37 7 -318 10
-285 3z"/>
<path d="M6448 7173 c17 -2 47 -2 65 0 17 2 3 4 -33 4 -36 0 -50 -2 -32 -4z"/>
<path d="M6255 7160 c-11 -4 17 -6 65 -3 47 3 87 7 89 9 9 8 -135 2 -154 -6z"/>
<path d="M4242 6745 c-120 -69 -228 -178 -392 -400 -103 -139 -114 -155 -107
-155 3 0 56 69 118 153 150 202 295 348 398 402 17 8 31 18 31 20 0 7 -2 7
-48 -20z"/>
<path d="M5618 6913 c6 -2 18 -2 25 0 6 3 1 5 -13 5 -14 0 -19 -2 -12 -5z"/>
<path d="M5720 6876 c0 -5 94 -54 126 -66 42 -16 26 -2 -28 26 -60 29 -98 45
-98 40z"/>
<path d="M5880 6797 c0 -2 27 -21 60 -41 132 -81 216 -185 366 -448 72 -127
116 -193 79 -118 -85 169 -217 373 -294 454 -60 62 -211 172 -211 153z"/>
<path d="M5406 6672 c-3 -5 -1 -22 4 -38 l10 -29 -3 32 c-2 18 1 35 7 37 7 3
7 5 -1 5 -6 1 -14 -3 -17 -7z"/>
<path d="M5750 6547 c0 -2 25 -36 55 -76 30 -41 56 -78 58 -85 2 -6 7 -8 11
-5 3 3 -15 33 -40 68 -26 34 -45 64 -43 66 3 2 25 -9 50 -25 72 -45 159 -92
159 -87 0 2 -42 29 -92 59 -100 59 -158 91 -158 85z"/>
<path d="M6400 6141 c0 -6 4 -13 10 -16 6 -3 7 1 4 9 -7 18 -14 21 -14 7z"/>
<path d="M3270 6140 c-38 -76 -88 -169 -110 -205 -51 -83 -163 -295 -157 -295
3 0 25 37 50 83 50 92 63 115 137 242 74 127 166 315 155 315 -3 0 -36 -63
-75 -140z"/>
<path d="M3328 6056 c-71 -71 -116 -164 -137 -286 -9 -53 -14 -111 -10 -130 5
-29 7 -25 8 25 2 84 26 188 59 259 31 65 112 162 146 176 17 7 17 9 4 9 -9 1
-41 -23 -70 -53z"/>
<path d="M3415 6060 c-19 -91 -123 -325 -187 -420 -26 -39 -27 -42 -5 -20 57
57 218 422 204 463 -2 6 -7 -4 -12 -23z"/>
<path d="M4173 5980 c-32 -13 -29 -21 5 -10 56 18 58 18 37 19 -11 0 -30 -4
-42 -9z"/>
<path d="M3981 5959 c-13 -11 -22 -22 -19 -24 2 -3 15 6 28 20 28 30 24 32 -9
4z"/>
<path d="M4340 5955 c-7 -9 -10 -18 -7 -21 3 -3 10 4 17 15 13 25 8 27 -10 6z"/>
<path d="M4408 5905 c-27 -220 -38 -336 -44 -454 -3 -74 -10 -147 -15 -163 -4
-16 -4 -26 1 -23 11 7 18 54 25 160 11 182 16 243 31 358 8 65 14 133 12 150
-2 23 -5 15 -10 -28z"/>
<path d="M3833 5707 c-1 -117 -4 -248 -7 -292 -3 -61 -2 -70 4 -35 13 69 24
504 14 522 -6 10 -10 -64 -11 -195z"/>
<path d="M3922 5877 c-63 -126 -70 -368 -17 -551 9 -29 22 -61 30 -72 8 -11 4
9 -9 46 -66 181 -58 462 15 588 10 17 15 32 10 32 -4 0 -17 -19 -29 -43z"/>
<path d="M3778 5882 c-52 -91 -84 -262 -68 -370 10 -70 36 -160 52 -177 4 -5
-1 17 -13 50 -15 43 -23 93 -26 177 -5 101 -2 126 17 190 12 40 31 90 42 111
22 45 20 60 -4 19z"/>
<path d="M4485 5878 c-62 -89 -67 -394 -8 -498 9 -16 12 -18 8 -5 -58 180 -49
431 18 503 11 12 15 22 9 22 -6 0 -18 -10 -27 -22z"/>
<path d="M4548 5873 c5 -21 7 -23 10 -9 2 10 0 22 -6 28 -6 6 -7 0 -4 -19z"/>
<path d="M4553 5707 c-3 -145 -20 -311 -35 -342 -9 -19 -8 -19 5 -2 18 22 25
64 37 232 12 159 12 245 3 245 -5 0 -9 -60 -10 -133z"/>
<path d="M3353 5758 c-23 -45 -27 -67 -29 -148 l-2 -95 7 90 c7 89 37 180 64
197 9 6 9 8 0 8 -7 0 -25 -24 -40 -52z"/>
<path d="M3422 5770 c-2 -29 -29 -150 -57 -253 -4 -17 -4 -18 4 -7 19 31 62
219 58 256 l-4 39 -1 -35z"/>
<path d="M4723 5771 c34 -41 50 -101 43 -165 -5 -50 -5 -51 5 -11 18 70 -11
173 -54 197 -18 9 -17 6 6 -21z"/>
<path d="M4673 5775 c-3 -9 -3 -18 -1 -21 3 -3 8 4 11 16 6 23 -1 27 -10 5z"/>
<path d="M2711 5724 c0 -11 3 -14 6 -6 3 7 2 16 -1 19 -3 4 -6 -2 -5 -13z"/>
<path d="M4665 5640 c2 -66 8 -118 18 -140 8 -19 16 -29 16 -22 1 7 -4 22 -10
34 -6 11 -15 68 -19 127 l-9 106 4 -105z"/>
<path d="M3603 5605 c15 -43 21 -84 22 -147 0 -58 3 -80 8 -65 19 47 -6 209
-37 252 -9 13 -6 -3 7 -40z"/>
<path d="M3547 5643 c-18 -17 4 -225 26 -248 6 -6 7 -3 4 10 -17 61 -29 149
-26 194 2 28 4 51 3 51 0 0 -4 -3 -7 -7z"/>
<path d="M4744 5514 c-6 -19 -8 -34 -3 -34 8 0 24 59 17 65 -2 2 -8 -12 -14
-31z"/>
<path d="M4202 5479 c-5 -13 -15 -67 -21 -119 -7 -52 -17 -101 -24 -110 -10
-13 -10 -13 4 -2 9 7 20 34 23 60 4 26 12 76 18 111 l11 64 31 -95 c30 -92 57
-138 80 -138 6 0 1 7 -11 15 -13 9 -32 50 -54 117 -37 118 -45 131 -57 97z"/>
<path d="M4003 5334 c-11 -41 -17 -72 -12 -67 9 10 42 134 36 139 -2 2 -13
-30 -24 -72z"/>
<path d="M4043 5405 c9 -41 44 -118 61 -138 12 -12 18 -18 14 -12 -3 5 -23 44
-42 85 -20 41 -35 70 -33 65z"/>
<path d="M7162 4795 c0 -16 2 -22 5 -12 2 9 2 23 0 30 -3 6 -5 -1 -5 -18z"/>
<path d="M6731 4744 c0 -11 3 -14 6 -6 3 7 2 16 -1 19 -3 4 -6 -2 -5 -13z"/>
<path d="M6322 4200 c0 -14 2 -19 5 -12 2 6 2 18 0 25 -3 6 -5 1 -5 -13z"/>
</g>
</svg>
